<?xml version="1.0" encoding="utf-8" standalone="no"?>
<!DOCTYPE svg PUBLIC "-//W3C//DTD SVG 1.1//EN"
  "http://www.w3.org/Graphics/SVG/1.1/DTD/svg11.dtd">
<svg xmlns:xlink="http://www.w3.org/1999/xlink" width="649.345131pt" height="279.497813pt" viewBox="0 0 649.345131 279.497813" xmlns="http://www.w3.org/2000/svg" version="1.1">
 <metadata>
  <rdf:RDF xmlns:dc="http://purl.org/dc/elements/1.1/" xmlns:cc="http://creativecommons.org/ns#" xmlns:rdf="http://www.w3.org/1999/02/22-rdf-syntax-ns#">
   <cc:Work>
    <dc:type rdf:resource="http://purl.org/dc/dcmitype/StillImage"/>
    <dc:date>2026-09-01T18:55:47.471999</dc:date>
    <dc:format>image/svg+xml</dc:format>
    <dc:creator>
     <cc:Agent>
      <dc:title>Matplotlib v3.11.0, https://matplotlib.org/</dc:title>
     </cc:Agent>
    </dc:creator>
   </cc:Work>
  </rdf:RDF>
 </metadata>
 <defs>
  <style type="text/css">*{stroke-linejoin: round; stroke-linecap: butt}</style>
 </defs>
 <g id="figure_1">
  <g id="patch_1">
   <path d="M 0 279.497813 
L 649.345131 279.497813 
L 649.345131 0 
L 0 0 
z
" style="fill: #ffffff"/>
  </g>
  <g id="axes_1">
   <g id="patch_2">
    <path d="M 48.567969 227.229062 
L 197.447852 227.229062 
L 197.447852 108.688 
L 48.567969 108.688 
z
" style="fill: #ffffff"/>
   </g>
   <g id="matplotlib.axis_1">
    <g id="xtick_1">
     <g id="line2d_1">
      <defs>
       <path id="m6c643b3e52" d="M 0 0 
L 0 3.5 
" style="stroke: #000000; stroke-width: 0.8"/>
      </defs>
      <g>
       <use xlink:href="#m6c643b3e52" x="59.76242" y="227.229062" style="stroke: #000000; stroke-width: 0.8"/>
      </g>
     </g>
     <g id="text_1">
      <!-- α -->
      <g transform="translate(56.466327 242.827695) scale(0.1 -0.1)">
       <defs>
        <path id="DejaVuSans-345" d="M 2644 1628 
L 2506 2350 
Q 2366 3091 1809 3091 
Q 1391 3091 1200 2747 
Q 959 2316 959 1747 
Q 959 1059 1194 731 
Q 1431 397 1809 397 
Q 2228 397 2453 1063 
L 2644 1628 
z
M 2966 2584 
L 3275 3500 
L 3788 3500 
L 3147 1603 
L 3272 919 
Q 3300 766 3409 638 
Q 3538 488 3638 488 
L 3913 488 
L 3913 0 
L 3569 0 
Q 3275 0 3013 263 
Q 2884 394 2831 669 
Q 2688 322 2394 50 
Q 2256 -78 1809 -78 
Q 1075 -78 719 397 
Q 353 888 353 1747 
Q 353 2666 750 3097 
Q 1191 3578 1809 3578 
Q 2781 3578 2966 2584 
z
" transform="scale(0.015625)"/>
       </defs>
       <use xlink:href="#DejaVuSans-345"/>
      </g>
      <!-- (alpha) -->
      <g transform="translate(42.000702 254.83043) scale(0.1 -0.1)">
       <defs>
        <path id="DejaVuSans-b" d="M 1984 4856 
Q 1566 4138 1362 3434 
Q 1159 2731 1159 2009 
Q 1159 1288 1364 580 
Q 1569 -128 1984 -844 
L 1484 -844 
Q 1016 -109 783 600 
Q 550 1309 550 2009 
Q 550 2706 781 3412 
Q 1013 4119 1484 4856 
L 1984 4856 
z
" transform="scale(0.015625)"/>
        <path id="DejaVuSans-44" d="M 2194 1759 
Q 1497 1759 1228 1600 
Q 959 1441 959 1056 
Q 959 750 1161 570 
Q 1363 391 1709 391 
Q 2188 391 2477 730 
Q 2766 1069 2766 1631 
L 2766 1759 
L 2194 1759 
z
M 3341 1997 
L 3341 0 
L 2766 0 
L 2766 531 
Q 2569 213 2275 61 
Q 1981 -91 1556 -91 
Q 1019 -91 701 211 
Q 384 513 384 1019 
Q 384 1609 779 1909 
Q 1175 2209 1959 2209 
L 2766 2209 
L 2766 2266 
Q 2766 2663 2505 2880 
Q 2244 3097 1772 3097 
Q 1472 3097 1187 3025 
Q 903 2953 641 2809 
L 641 3341 
Q 956 3463 1253 3523 
Q 1550 3584 1831 3584 
Q 2591 3584 2966 3190 
Q 3341 2797 3341 1997 
z
" transform="scale(0.015625)"/>
        <path id="DejaVuSans-4f" d="M 603 4863 
L 1178 4863 
L 1178 0 
L 603 0 
L 603 4863 
z
" transform="scale(0.015625)"/>
        <path id="DejaVuSans-53" d="M 1159 525 
L 1159 -1331 
L 581 -1331 
L 581 3500 
L 1159 3500 
L 1159 2969 
Q 1341 3281 1617 3432 
Q 1894 3584 2278 3584 
Q 2916 3584 3314 3078 
Q 3713 2572 3713 1747 
Q 3713 922 3314 415 
Q 2916 -91 2278 -91 
Q 1894 -91 1617 61 
Q 1341 213 1159 525 
z
M 3116 1747 
Q 3116 2381 2855 2742 
Q 2594 3103 2138 3103 
Q 1681 3103 1420 2742 
Q 1159 2381 1159 1747 
Q 1159 1113 1420 752 
Q 1681 391 2138 391 
Q 2594 391 2855 752 
Q 3116 1113 3116 1747 
z
" transform="scale(0.015625)"/>
        <path id="DejaVuSans-4b" d="M 3513 2113 
L 3513 0 
L 2938 0 
L 2938 2094 
Q 2938 2591 2744 2837 
Q 2550 3084 2163 3084 
Q 1697 3084 1428 2787 
Q 1159 2491 1159 1978 
L 1159 0 
L 581 0 
L 581 4863 
L 1159 4863 
L 1159 2956 
Q 1366 3272 1645 3428 
Q 1925 3584 2291 3584 
Q 2894 3584 3203 3211 
Q 3513 2838 3513 2113 
z
" transform="scale(0.015625)"/>
        <path id="DejaVuSans-c" d="M 513 4856 
L 1013 4856 
Q 1481 4119 1714 3412 
Q 1947 2706 1947 2009 
Q 1947 1309 1714 600 
Q 1481 -109 1013 -844 
L 513 -844 
Q 928 -128 1133 580 
Q 1338 1288 1338 2009 
Q 1338 2731 1133 3434 
Q 928 4138 513 4856 
z
" transform="scale(0.015625)"/>
       </defs>
       <use xlink:href="#DejaVuSans-b"/>
       <use xlink:href="#DejaVuSans-44" transform="translate(39.015625 0)"/>
       <use xlink:href="#DejaVuSans-4f" transform="translate(100.296875 0)"/>
       <use xlink:href="#DejaVuSans-53" transform="translate(128.078125 0)"/>
       <use xlink:href="#DejaVuSans-4b" transform="translate(191.5625 0)"/>
       <use xlink:href="#DejaVuSans-44" transform="translate(254.9375 0)"/>
       <use xlink:href="#DejaVuSans-c" transform="translate(316.21875 0)"/>
      </g>
     </g>
    </g>
    <g id="xtick_2">
     <g id="line2d_2">
      <g>
       <use xlink:href="#m6c643b3e52" x="123.00791" y="227.229062" style="stroke: #000000; stroke-width: 0.8"/>
      </g>
     </g>
     <g id="text_2">
      <!-- β -->
      <g transform="translate(119.817285 242.890977) scale(0.1 -0.1)">
       <defs>
        <path id="DejaVuSans-346" d="M 1178 216 
L 1178 -1331 
L 600 -1331 
L 600 3478 
Q 600 4903 1931 4903 
Q 3288 4903 3288 3700 
Q 3288 2844 2750 2531 
Q 3625 2250 3625 1416 
Q 3625 -66 2119 -66 
Q 1456 -66 1178 216 
z
M 1178 966 
Q 1525 425 2141 425 
Q 3041 425 3041 1406 
Q 3041 2288 1591 2219 
L 1591 2750 
Q 2725 2750 2725 3750 
Q 2725 4434 1994 4434 
Q 1178 4434 1178 3459 
L 1178 966 
z
" transform="scale(0.015625)"/>
       </defs>
       <use xlink:href="#DejaVuSans-346"/>
      </g>
      <!-- (beta) -->
      <g transform="translate(107.831348 254.893711) scale(0.1 -0.1)">
       <defs>
        <path id="DejaVuSans-45" d="M 3116 1747 
Q 3116 2381 2855 2742 
Q 2594 3103 2138 3103 
Q 1681 3103 1420 2742 
Q 1159 2381 1159 1747 
Q 1159 1113 1420 752 
Q 1681 391 2138 391 
Q 2594 391 2855 752 
Q 3116 1113 3116 1747 
z
M 1159 2969 
Q 1341 3281 1617 3432 
Q 1894 3584 2278 3584 
Q 2916 3584 3314 3078 
Q 3713 2572 3713 1747 
Q 3713 922 3314 415 
Q 2916 -91 2278 -91 
Q 1894 -91 1617 61 
Q 1341 213 1159 525 
L 1159 0 
L 581 0 
L 581 4863 
L 1159 4863 
L 1159 2969 
z
" transform="scale(0.015625)"/>
        <path id="DejaVuSans-48" d="M 3597 1894 
L 3597 1613 
L 953 1613 
Q 991 1019 1311 708 
Q 1631 397 2203 397 
Q 2534 397 2845 478 
Q 3156 559 3463 722 
L 3463 178 
Q 3153 47 2828 -22 
Q 2503 -91 2169 -91 
Q 1331 -91 842 396 
Q 353 884 353 1716 
Q 353 2575 817 3079 
Q 1281 3584 2069 3584 
Q 2775 3584 3186 3129 
Q 3597 2675 3597 1894 
z
M 3022 2063 
Q 3016 2534 2758 2815 
Q 2500 3097 2075 3097 
Q 1594 3097 1305 2825 
Q 1016 2553 972 2059 
L 3022 2063 
z
" transform="scale(0.015625)"/>
        <path id="DejaVuSans-57" d="M 1172 4494 
L 1172 3500 
L 2356 3500 
L 2356 3053 
L 1172 3053 
L 1172 1153 
Q 1172 725 1289 603 
Q 1406 481 1766 481 
L 2356 481 
L 2356 0 
L 1766 0 
Q 1100 0 847 248 
Q 594 497 594 1153 
L 594 3053 
L 172 3053 
L 172 3500 
L 594 3500 
L 594 4494 
L 1172 4494 
z
" transform="scale(0.015625)"/>
       </defs>
       <use xlink:href="#DejaVuSans-b"/>
       <use xlink:href="#DejaVuSans-45" transform="translate(39.015625 0)"/>
       <use xlink:href="#DejaVuSans-48" transform="translate(102.5 0)"/>
       <use xlink:href="#DejaVuSans-57" transform="translate(164.03125 0)"/>
       <use xlink:href="#DejaVuSans-44" transform="translate(203.234375 0)"/>
       <use xlink:href="#DejaVuSans-c" transform="translate(264.515625 0)"/>
      </g>
     </g>
    </g>
    <g id="xtick_3">
     <g id="line2d_3">
      <g>
       <use xlink:href="#m6c643b3e52" x="186.2534" y="227.229062" style="stroke: #000000; stroke-width: 0.8"/>
      </g>
     </g>
     <g id="text_3">
      <!-- γ -->
      <g transform="translate(183.294025 242.827695) scale(0.1 -0.1)">
       <defs>
        <path id="DejaVuSans-347" d="M 1128 2950 
L 1894 788 
L 2988 3500 
L 3597 3500 
L 2181 0 
L 2181 -1331 
L 1606 -1331 
L 1606 0 
L 688 2613 
Q 550 3006 253 3006 
L 100 3006 
L 100 3500 
L 319 3500 
Q 934 3500 1128 2950 
z
" transform="scale(0.015625)"/>
       </defs>
       <use xlink:href="#DejaVuSans-347"/>
      </g>
      <!-- (gamma) -->
      <g transform="translate(163.308869 254.829648) scale(0.1 -0.1)">
       <defs>
        <path id="DejaVuSans-4a" d="M 2906 1791 
Q 2906 2416 2648 2759 
Q 2391 3103 1925 3103 
Q 1463 3103 1205 2759 
Q 947 2416 947 1791 
Q 947 1169 1205 825 
Q 1463 481 1925 481 
Q 2391 481 2648 825 
Q 2906 1169 2906 1791 
z
M 3481 434 
Q 3481 -459 3084 -895 
Q 2688 -1331 1869 -1331 
Q 1566 -1331 1297 -1286 
Q 1028 -1241 775 -1147 
L 775 -588 
Q 1028 -725 1275 -790 
Q 1522 -856 1778 -856 
Q 2344 -856 2625 -561 
Q 2906 -266 2906 331 
L 2906 616 
Q 2728 306 2450 153 
Q 2172 0 1784 0 
Q 1141 0 747 490 
Q 353 981 353 1791 
Q 353 2603 747 3093 
Q 1141 3584 1784 3584 
Q 2172 3584 2450 3431 
Q 2728 3278 2906 2969 
L 2906 3500 
L 3481 3500 
L 3481 434 
z
" transform="scale(0.015625)"/>
        <path id="DejaVuSans-50" d="M 3328 2828 
Q 3544 3216 3844 3400 
Q 4144 3584 4550 3584 
Q 5097 3584 5394 3201 
Q 5691 2819 5691 2113 
L 5691 0 
L 5113 0 
L 5113 2094 
Q 5113 2597 4934 2840 
Q 4756 3084 4391 3084 
Q 3944 3084 3684 2787 
Q 3425 2491 3425 1978 
L 3425 0 
L 2847 0 
L 2847 2094 
Q 2847 2600 2669 2842 
Q 2491 3084 2119 3084 
Q 1678 3084 1418 2786 
Q 1159 2488 1159 1978 
L 1159 0 
L 581 0 
L 581 3500 
L 1159 3500 
L 1159 2956 
Q 1356 3278 1631 3431 
Q 1906 3584 2284 3584 
Q 2666 3584 2933 3390 
Q 3200 3197 3328 2828 
z
" transform="scale(0.015625)"/>
       </defs>
       <use xlink:href="#DejaVuSans-b"/>
       <use xlink:href="#DejaVuSans-4a" transform="translate(39.015625 0)"/>
       <use xlink:href="#DejaVuSans-44" transform="translate(102.5 0)"/>
       <use xlink:href="#DejaVuSans-50" transform="translate(163.78125 0)"/>
       <use xlink:href="#DejaVuSans-50" transform="translate(261.1875 0)"/>
       <use xlink:href="#DejaVuSans-44" transform="translate(358.59375 0)"/>
       <use xlink:href="#DejaVuSans-c" transform="translate(419.875 0)"/>
      </g>
     </g>
    </g>
    <g id="text_4">
     <!-- generated sequence difficulty -->
     <g transform="translate(48.283692 269.895469) scale(0.1 -0.1)">
      <defs>
       <path id="DejaVuSans-51" d="M 3513 2113 
L 3513 0 
L 2938 0 
L 2938 2094 
Q 2938 2591 2744 2837 
Q 2550 3084 2163 3084 
Q 1697 3084 1428 2787 
Q 1159 2491 1159 1978 
L 1159 0 
L 581 0 
L 581 3500 
L 1159 3500 
L 1159 2956 
Q 1366 3272 1645 3428 
Q 1925 3584 2291 3584 
Q 2894 3584 3203 3211 
Q 3513 2838 3513 2113 
z
" transform="scale(0.015625)"/>
       <path id="DejaVuSans-55" d="M 2631 2963 
Q 2534 3019 2420 3045 
Q 2306 3072 2169 3072 
Q 1681 3072 1420 2755 
Q 1159 2438 1159 1844 
L 1159 0 
L 581 0 
L 581 3500 
L 1159 3500 
L 1159 2956 
Q 1341 3275 1631 3429 
Q 1922 3584 2338 3584 
Q 2397 3584 2469 3576 
Q 2541 3569 2628 3553 
L 2631 2963 
z
" transform="scale(0.015625)"/>
       <path id="DejaVuSans-47" d="M 2906 2969 
L 2906 4863 
L 3481 4863 
L 3481 0 
L 2906 0 
L 2906 525 
Q 2725 213 2448 61 
Q 2172 -91 1784 -91 
Q 1150 -91 751 415 
Q 353 922 353 1747 
Q 353 2572 751 3078 
Q 1150 3584 1784 3584 
Q 2172 3584 2448 3432 
Q 2725 3281 2906 2969 
z
M 947 1747 
Q 947 1113 1208 752 
Q 1469 391 1925 391 
Q 2381 391 2643 752 
Q 2906 1113 2906 1747 
Q 2906 2381 2643 2742 
Q 2381 3103 1925 3103 
Q 1469 3103 1208 2742 
Q 947 2381 947 1747 
z
" transform="scale(0.015625)"/>
       <path id="DejaVuSans-3" transform="scale(0.015625)"/>
       <path id="DejaVuSans-56" d="M 2834 3397 
L 2834 2853 
Q 2591 2978 2328 3040 
Q 2066 3103 1784 3103 
Q 1356 3103 1142 2972 
Q 928 2841 928 2578 
Q 928 2378 1081 2264 
Q 1234 2150 1697 2047 
L 1894 2003 
Q 2506 1872 2764 1633 
Q 3022 1394 3022 966 
Q 3022 478 2636 193 
Q 2250 -91 1575 -91 
Q 1294 -91 989 -36 
Q 684 19 347 128 
L 347 722 
Q 666 556 975 473 
Q 1284 391 1588 391 
Q 1994 391 2212 530 
Q 2431 669 2431 922 
Q 2431 1156 2273 1281 
Q 2116 1406 1581 1522 
L 1381 1569 
Q 847 1681 609 1914 
Q 372 2147 372 2553 
Q 372 3047 722 3315 
Q 1072 3584 1716 3584 
Q 2034 3584 2315 3537 
Q 2597 3491 2834 3397 
z
" transform="scale(0.015625)"/>
       <path id="DejaVuSans-54" d="M 947 1747 
Q 947 1113 1208 752 
Q 1469 391 1925 391 
Q 2381 391 2643 752 
Q 2906 1113 2906 1747 
Q 2906 2381 2643 2742 
Q 2381 3103 1925 3103 
Q 1469 3103 1208 2742 
Q 947 2381 947 1747 
z
M 2906 525 
Q 2725 213 2448 61 
Q 2172 -91 1784 -91 
Q 1150 -91 751 415 
Q 353 922 353 1747 
Q 353 2572 751 3078 
Q 1150 3584 1784 3584 
Q 2172 3584 2448 3432 
Q 2725 3281 2906 2969 
L 2906 3500 
L 3481 3500 
L 3481 -1331 
L 2906 -1331 
L 2906 525 
z
" transform="scale(0.015625)"/>
       <path id="DejaVuSans-58" d="M 544 1381 
L 544 3500 
L 1119 3500 
L 1119 1403 
Q 1119 906 1312 657 
Q 1506 409 1894 409 
Q 2359 409 2629 706 
Q 2900 1003 2900 1516 
L 2900 3500 
L 3475 3500 
L 3475 0 
L 2900 0 
L 2900 538 
Q 2691 219 2414 64 
Q 2138 -91 1772 -91 
Q 1169 -91 856 284 
Q 544 659 544 1381 
z
M 1991 3584 
L 1991 3584 
z
" transform="scale(0.015625)"/>
       <path id="DejaVuSans-46" d="M 3122 3366 
L 3122 2828 
Q 2878 2963 2633 3030 
Q 2388 3097 2138 3097 
Q 1578 3097 1268 2742 
Q 959 2388 959 1747 
Q 959 1106 1268 751 
Q 1578 397 2138 397 
Q 2388 397 2633 464 
Q 2878 531 3122 666 
L 3122 134 
Q 2881 22 2623 -34 
Q 2366 -91 2075 -91 
Q 1284 -91 818 406 
Q 353 903 353 1747 
Q 353 2603 823 3093 
Q 1294 3584 2113 3584 
Q 2378 3584 2631 3529 
Q 2884 3475 3122 3366 
z
" transform="scale(0.015625)"/>
       <path id="DejaVuSans-4c" d="M 603 3500 
L 1178 3500 
L 1178 0 
L 603 0 
L 603 3500 
z
M 603 4863 
L 1178 4863 
L 1178 4134 
L 603 4134 
L 603 4863 
z
" transform="scale(0.015625)"/>
       <path id="DejaVuSans-13b1" d="M 2375 4863 
L 2375 4384 
L 1825 4384 
Q 1516 4384 1394 4259 
Q 1275 4134 1275 3809 
L 1275 3500 
L 2853 3500 
L 2853 3744 
Q 2853 4328 3125 4594 
Q 3213 4681 3334 4741 
Q 3578 4863 3988 4863 
L 4531 4863 
L 4531 4384 
L 3981 4384 
Q 3672 4384 3551 4259 
Q 3431 4134 3431 3809 
L 3431 3500 
L 5588 3500 
L 5588 0 
L 5009 0 
L 5009 3053 
L 3431 3053 
L 3431 0 
L 2853 0 
L 2853 3053 
L 1275 3053 
L 1275 0 
L 697 0 
L 697 3053 
L 147 3053 
L 147 3500 
L 697 3500 
L 697 3744 
Q 697 4328 969 4595 
Q 1241 4863 1831 4863 
L 2375 4863 
z
M 5009 4856 
L 5588 4856 
L 5588 4128 
L 5009 4128 
L 5009 4856 
z
" transform="scale(0.015625)"/>
       <path id="DejaVuSans-5c" d="M 2059 -325 
Q 1816 -950 1584 -1140 
Q 1353 -1331 966 -1331 
L 506 -1331 
L 506 -850 
L 844 -850 
Q 1081 -850 1212 -737 
Q 1344 -625 1503 -206 
L 1606 56 
L 191 3500 
L 800 3500 
L 1894 763 
L 2988 3500 
L 3597 3500 
L 2059 -325 
z
" transform="scale(0.015625)"/>
      </defs>
      <use xlink:href="#DejaVuSans-4a"/>
      <use xlink:href="#DejaVuSans-48" transform="translate(63.484375 0)"/>
      <use xlink:href="#DejaVuSans-51" transform="translate(125.015625 0)"/>
      <use xlink:href="#DejaVuSans-48" transform="translate(188.390625 0)"/>
      <use xlink:href="#DejaVuSans-55" transform="translate(249.921875 0)"/>
      <use xlink:href="#DejaVuSans-44" transform="translate(291.03125 0)"/>
      <use xlink:href="#DejaVuSans-57" transform="translate(352.3125 0)"/>
      <use xlink:href="#DejaVuSans-48" transform="translate(391.515625 0)"/>
      <use xlink:href="#DejaVuSans-47" transform="translate(453.046875 0)"/>
      <use xlink:href="#DejaVuSans-3" transform="translate(516.53125 0)"/>
      <use xlink:href="#DejaVuSans-56" transform="translate(548.3125 0)"/>
      <use xlink:href="#DejaVuSans-48" transform="translate(600.40625 0)"/>
      <use xlink:href="#DejaVuSans-54" transform="translate(661.9375 0)"/>
      <use xlink:href="#DejaVuSans-58" transform="translate(725.421875 0)"/>
      <use xlink:href="#DejaVuSans-48" transform="translate(788.796875 0)"/>
      <use xlink:href="#DejaVuSans-51" transform="translate(850.328125 0)"/>
      <use xlink:href="#DejaVuSans-46" transform="translate(913.703125 0)"/>
      <use xlink:href="#DejaVuSans-48" transform="translate(968.6875 0)"/>
      <use xlink:href="#DejaVuSans-3" transform="translate(1030.21875 0)"/>
      <use xlink:href="#DejaVuSans-47" transform="translate(1062 0)"/>
      <use xlink:href="#DejaVuSans-4c" transform="translate(1125.484375 0)"/>
      <use xlink:href="#DejaVuSans-13b1" transform="translate(1153.265625 0)"/>
      <use xlink:href="#DejaVuSans-46" transform="translate(1249.953125 0)"/>
      <use xlink:href="#DejaVuSans-58" transform="translate(1304.9375 0)"/>
      <use xlink:href="#DejaVuSans-4f" transform="translate(1368.3125 0)"/>
      <use xlink:href="#DejaVuSans-57" transform="translate(1396.09375 0)"/>
      <use xlink:href="#DejaVuSans-5c" transform="translate(1435.296875 0)"/>
     </g>
    </g>
   </g>
   <g id="matplotlib.axis_2">
    <g id="ytick_1">
     <g id="line2d_4">
      <path d="M 48.567969 227.229062 
L 197.447852 227.229062 
" clip-path="url(#p5c49cb60a2)" style="fill: none; stroke: #dddddd; stroke-opacity: 0.7; stroke-width: 0.6; stroke-linecap: square"/>
     </g>
     <g id="line2d_5">
      <defs>
       <path id="m7d5a50dcbd" d="M 0 0 
L -3.5 0 
" style="stroke: #000000; stroke-width: 0.8"/>
      </defs>
      <g>
       <use xlink:href="#m7d5a50dcbd" x="48.567969" y="227.229062" style="stroke: #000000; stroke-width: 0.8"/>
      </g>
     </g>
     <g id="text_5">
      <!-- 0 -->
      <g transform="translate(35.205469 231.027891) scale(0.1 -0.1)">
       <defs>
        <path id="DejaVuSans-13" d="M 2034 4250 
Q 1547 4250 1301 3770 
Q 1056 3291 1056 2328 
Q 1056 1369 1301 889 
Q 1547 409 2034 409 
Q 2525 409 2770 889 
Q 3016 1369 3016 2328 
Q 3016 3291 2770 3770 
Q 2525 4250 2034 4250 
z
M 2034 4750 
Q 2819 4750 3233 4129 
Q 3647 3509 3647 2328 
Q 3647 1150 3233 529 
Q 2819 -91 2034 -91 
Q 1250 -91 836 529 
Q 422 1150 422 2328 
Q 422 3509 836 4129 
Q 1250 4750 2034 4750 
z
" transform="scale(0.015625)"/>
       </defs>
       <use xlink:href="#DejaVuSans-13"/>
      </g>
     </g>
    </g>
    <g id="ytick_2">
     <g id="line2d_6">
      <path d="M 48.567969 183.658061 
L 197.447852 183.658061 
" clip-path="url(#p5c49cb60a2)" style="fill: none; stroke: #dddddd; stroke-opacity: 0.7; stroke-width: 0.6; stroke-linecap: square"/>
     </g>
     <g id="line2d_7">
      <g>
       <use xlink:href="#m7d5a50dcbd" x="48.567969" y="183.658061" style="stroke: #000000; stroke-width: 0.8"/>
      </g>
     </g>
     <g id="text_6">
      <!-- 2 -->
      <g transform="translate(35.205469 187.456889) scale(0.1 -0.1)">
       <defs>
        <path id="DejaVuSans-15" d="M 1228 531 
L 3431 531 
L 3431 0 
L 469 0 
L 469 531 
Q 828 903 1448 1529 
Q 2069 2156 2228 2338 
Q 2531 2678 2651 2914 
Q 2772 3150 2772 3378 
Q 2772 3750 2511 3984 
Q 2250 4219 1831 4219 
Q 1534 4219 1204 4116 
Q 875 4013 500 3803 
L 500 4441 
Q 881 4594 1212 4672 
Q 1544 4750 1819 4750 
Q 2544 4750 2975 4387 
Q 3406 4025 3406 3419 
Q 3406 3131 3298 2873 
Q 3191 2616 2906 2266 
Q 2828 2175 2409 1742 
Q 1991 1309 1228 531 
z
" transform="scale(0.015625)"/>
       </defs>
       <use xlink:href="#DejaVuSans-15"/>
      </g>
     </g>
    </g>
    <g id="ytick_3">
     <g id="line2d_8">
      <path d="M 48.567969 140.08706 
L 197.447852 140.08706 
" clip-path="url(#p5c49cb60a2)" style="fill: none; stroke: #dddddd; stroke-opacity: 0.7; stroke-width: 0.6; stroke-linecap: square"/>
     </g>
     <g id="line2d_9">
      <g>
       <use xlink:href="#m7d5a50dcbd" x="48.567969" y="140.08706" style="stroke: #000000; stroke-width: 0.8"/>
      </g>
     </g>
     <g id="text_7">
      <!-- 4 -->
      <g transform="translate(35.205469 143.885888) scale(0.1 -0.1)">
       <defs>
        <path id="DejaVuSans-17" d="M 2419 4116 
L 825 1625 
L 2419 1625 
L 2419 4116 
z
M 2253 4666 
L 3047 4666 
L 3047 1625 
L 3713 1625 
L 3713 1100 
L 3047 1100 
L 3047 0 
L 2419 0 
L 2419 1100 
L 313 1100 
L 313 1709 
L 2253 4666 
z
" transform="scale(0.015625)"/>
       </defs>
       <use xlink:href="#DejaVuSans-17"/>
      </g>
     </g>
    </g>
    <g id="text_8">
     <!-- same-hand key travel -->
     <g transform="translate(15.799414 222.389781) rotate(-90) scale(0.1 -0.1)">
      <defs>
       <path id="DejaVuSans-10" d="M 313 2009 
L 1997 2009 
L 1997 1497 
L 313 1497 
L 313 2009 
z
" transform="scale(0.015625)"/>
       <path id="DejaVuSans-4e" d="M 581 4863 
L 1159 4863 
L 1159 1991 
L 2875 3500 
L 3609 3500 
L 1753 1863 
L 3688 0 
L 2938 0 
L 1159 1709 
L 1159 0 
L 581 0 
L 581 4863 
z
" transform="scale(0.015625)"/>
       <path id="DejaVuSans-59" d="M 191 3500 
L 800 3500 
L 1894 563 
L 2988 3500 
L 3597 3500 
L 2284 0 
L 1503 0 
L 191 3500 
z
" transform="scale(0.015625)"/>
      </defs>
      <use xlink:href="#DejaVuSans-56"/>
      <use xlink:href="#DejaVuSans-44" transform="translate(52.09375 0)"/>
      <use xlink:href="#DejaVuSans-50" transform="translate(113.375 0)"/>
      <use xlink:href="#DejaVuSans-48" transform="translate(210.78125 0)"/>
      <use xlink:href="#DejaVuSans-10" transform="translate(272.3125 0)"/>
      <use xlink:href="#DejaVuSans-4b" transform="translate(308.390625 0)"/>
      <use xlink:href="#DejaVuSans-44" transform="translate(371.765625 0)"/>
      <use xlink:href="#DejaVuSans-51" transform="translate(433.046875 0)"/>
      <use xlink:href="#DejaVuSans-47" transform="translate(496.421875 0)"/>
      <use xlink:href="#DejaVuSans-3" transform="translate(559.90625 0)"/>
      <use xlink:href="#DejaVuSans-4e" transform="translate(591.6875 0)"/>
      <use xlink:href="#DejaVuSans-48" transform="translate(646.03125 0)"/>
      <use xlink:href="#DejaVuSans-5c" transform="translate(707.5625 0)"/>
      <use xlink:href="#DejaVuSans-3" transform="translate(766.75 0)"/>
      <use xlink:href="#DejaVuSans-57" transform="translate(798.53125 0)"/>
      <use xlink:href="#DejaVuSans-55" transform="translate(837.734375 0)"/>
      <use xlink:href="#DejaVuSans-44" transform="translate(878.84375 0)"/>
      <use xlink:href="#DejaVuSans-59" transform="translate(940.125 0)"/>
      <use xlink:href="#DejaVuSans-48" transform="translate(999.3125 0)"/>
      <use xlink:href="#DejaVuSans-4f" transform="translate(1060.84375 0)"/>
     </g>
     <!-- (semitones) -->
     <g transform="translate(27.802148 197.67025) rotate(-90) scale(0.1 -0.1)">
      <defs>
       <path id="DejaVuSans-52" d="M 1959 3097 
Q 1497 3097 1228 2736 
Q 959 2375 959 1747 
Q 959 1119 1226 758 
Q 1494 397 1959 397 
Q 2419 397 2687 759 
Q 2956 1122 2956 1747 
Q 2956 2369 2687 2733 
Q 2419 3097 1959 3097 
z
M 1959 3584 
Q 2709 3584 3137 3096 
Q 3566 2609 3566 1747 
Q 3566 888 3137 398 
Q 2709 -91 1959 -91 
Q 1206 -91 779 398 
Q 353 888 353 1747 
Q 353 2609 779 3096 
Q 1206 3584 1959 3584 
z
" transform="scale(0.015625)"/>
      </defs>
      <use xlink:href="#DejaVuSans-b"/>
      <use xlink:href="#DejaVuSans-56" transform="translate(39.015625 0)"/>
      <use xlink:href="#DejaVuSans-48" transform="translate(91.109375 0)"/>
      <use xlink:href="#DejaVuSans-50" transform="translate(152.640625 0)"/>
      <use xlink:href="#DejaVuSans-4c" transform="translate(250.046875 0)"/>
      <use xlink:href="#DejaVuSans-57" transform="translate(277.828125 0)"/>
      <use xlink:href="#DejaVuSans-52" transform="translate(317.03125 0)"/>
      <use xlink:href="#DejaVuSans-51" transform="translate(378.21875 0)"/>
      <use xlink:href="#DejaVuSans-48" transform="translate(441.59375 0)"/>
      <use xlink:href="#DejaVuSans-56" transform="translate(503.125 0)"/>
      <use xlink:href="#DejaVuSans-c" transform="translate(555.21875 0)"/>
     </g>
    </g>
   </g>
   <g id="patch_3">
    <path d="M 48.567969 227.229062 
L 48.567969 108.688 
" style="fill: none; stroke: #000000; stroke-width: 0.8; stroke-linejoin: miter; stroke-linecap: square"/>
   </g>
   <g id="patch_4">
    <path d="M 197.447852 227.229062 
L 197.447852 108.688 
" style="fill: none; stroke: #000000; stroke-width: 0.8; stroke-linejoin: miter; stroke-linecap: square"/>
   </g>
   <g id="patch_5">
    <path d="M 48.567969 227.229062 
L 197.447852 227.229062 
" style="fill: none; stroke: #000000; stroke-width: 0.8; stroke-linejoin: miter; stroke-linecap: square"/>
   </g>
   <g id="patch_6">
    <path d="M 48.567969 108.688 
L 197.447852 108.688 
" style="fill: none; stroke: #000000; stroke-width: 0.8; stroke-linejoin: miter; stroke-linecap: square"/>
   </g>
   <g id="line2d_10">
    <path d="M 55.335236 196.258059 
L 118.580726 170.249124 
L 181.826216 114.332812 
" clip-path="url(#p5c49cb60a2)" style="fill: none; stroke-dasharray: 8.51,3.68; stroke-dashoffset: 0; stroke: #d77a47; stroke-width: 2.3"/>
    <defs>
     <path id="mc0f2964a02" d="M -2.5 2.5 
L 2.5 2.5 
L 2.5 -2.5 
L -2.5 -2.5 
z
" style="stroke: #d77a47; stroke-linejoin: miter"/>
    </defs>
    <g clip-path="url(#p5c49cb60a2)">
     <use xlink:href="#mc0f2964a02" x="55.335236" y="196.258059" style="fill: #d77a47; stroke: #d77a47; stroke-linejoin: miter"/>
     <use xlink:href="#mc0f2964a02" x="118.580726" y="170.249124" style="fill: #d77a47; stroke: #d77a47; stroke-linejoin: miter"/>
     <use xlink:href="#mc0f2964a02" x="181.826216" y="114.332812" style="fill: #d77a47; stroke: #d77a47; stroke-linejoin: miter"/>
    </g>
   </g>
   <g id="line2d_11">
    <path d="M 64.189605 183.312801 
L 127.435095 169.829177 
L 190.680584 130.440738 
" clip-path="url(#p5c49cb60a2)" style="fill: none; stroke: #3a76c4; stroke-width: 2.6; stroke-linecap: square"/>
    <defs>
     <path id="m74409108a8" d="M 0 2.5 
C 0.663008 2.5 1.29895 2.236584 1.767767 1.767767 
C 2.236584 1.29895 2.5 0.663008 2.5 0 
C 2.5 -0.663008 2.236584 -1.29895 1.767767 -1.767767 
C 1.29895 -2.236584 0.663008 -2.5 0 -2.5 
C -0.663008 -2.5 -1.29895 -2.236584 -1.767767 -1.767767 
C -2.236584 -1.29895 -2.5 -0.663008 -2.5 0 
C -2.5 0.663008 -2.236584 1.29895 -1.767767 1.767767 
C -1.29895 2.236584 -0.663008 2.5 0 2.5 
z
" style="stroke: #3a76c4"/>
    </defs>
    <g clip-path="url(#p5c49cb60a2)">
     <use xlink:href="#m74409108a8" x="64.189605" y="183.312801" style="fill: #3a76c4; stroke: #3a76c4"/>
     <use xlink:href="#m74409108a8" x="127.435095" y="169.829177" style="fill: #3a76c4; stroke: #3a76c4"/>
     <use xlink:href="#m74409108a8" x="190.680584" y="130.440738" style="fill: #3a76c4; stroke: #3a76c4"/>
    </g>
   </g>
   <g id="text_9">
    <!-- same-hand key travel (semitones) -->
    <g transform="translate(41.562481 102.688) scale(0.095 -0.095)">
     <use xlink:href="#DejaVuSans-56"/>
     <use xlink:href="#DejaVuSans-44" transform="translate(52.09375 0)"/>
     <use xlink:href="#DejaVuSans-50" transform="translate(113.375 0)"/>
     <use xlink:href="#DejaVuSans-48" transform="translate(210.78125 0)"/>
     <use xlink:href="#DejaVuSans-10" transform="translate(272.3125 0)"/>
     <use xlink:href="#DejaVuSans-4b" transform="translate(308.390625 0)"/>
     <use xlink:href="#DejaVuSans-44" transform="translate(371.765625 0)"/>
     <use xlink:href="#DejaVuSans-51" transform="translate(433.046875 0)"/>
     <use xlink:href="#DejaVuSans-47" transform="translate(496.421875 0)"/>
     <use xlink:href="#DejaVuSans-3" transform="translate(559.90625 0)"/>
     <use xlink:href="#DejaVuSans-4e" transform="translate(591.6875 0)"/>
     <use xlink:href="#DejaVuSans-48" transform="translate(646.03125 0)"/>
     <use xlink:href="#DejaVuSans-5c" transform="translate(707.5625 0)"/>
     <use xlink:href="#DejaVuSans-3" transform="translate(766.75 0)"/>
     <use xlink:href="#DejaVuSans-57" transform="translate(798.53125 0)"/>
     <use xlink:href="#DejaVuSans-55" transform="translate(837.734375 0)"/>
     <use xlink:href="#DejaVuSans-44" transform="translate(878.84375 0)"/>
     <use xlink:href="#DejaVuSans-59" transform="translate(940.125 0)"/>
     <use xlink:href="#DejaVuSans-48" transform="translate(999.3125 0)"/>
     <use xlink:href="#DejaVuSans-4f" transform="translate(1060.84375 0)"/>
     <use xlink:href="#DejaVuSans-3" transform="translate(1088.625 0)"/>
     <use xlink:href="#DejaVuSans-b" transform="translate(1120.40625 0)"/>
     <use xlink:href="#DejaVuSans-56" transform="translate(1159.421875 0)"/>
     <use xlink:href="#DejaVuSans-48" transform="translate(1211.515625 0)"/>
     <use xlink:href="#DejaVuSans-50" transform="translate(1273.046875 0)"/>
     <use xlink:href="#DejaVuSans-4c" transform="translate(1370.453125 0)"/>
     <use xlink:href="#DejaVuSans-57" transform="translate(1398.234375 0)"/>
     <use xlink:href="#DejaVuSans-52" transform="translate(1437.4375 0)"/>
     <use xlink:href="#DejaVuSans-51" transform="translate(1498.625 0)"/>
     <use xlink:href="#DejaVuSans-48" transform="translate(1562 0)"/>
     <use xlink:href="#DejaVuSans-56" transform="translate(1623.53125 0)"/>
     <use xlink:href="#DejaVuSans-c" transform="translate(1675.625 0)"/>
    </g>
   </g>
  </g>
  <g id="axes_2">
   <g id="patch_7">
    <path d="M 265.041569 227.229062 
L 413.921452 227.229062 
L 413.921452 108.688 
L 265.041569 108.688 
z
" style="fill: #ffffff"/>
   </g>
   <g id="matplotlib.axis_3">
    <g id="xtick_4">
     <g id="line2d_12">
      <g>
       <use xlink:href="#m6c643b3e52" x="276.23602" y="227.229062" style="stroke: #000000; stroke-width: 0.8"/>
      </g>
     </g>
     <g id="text_10">
      <!-- α -->
      <g transform="translate(272.939927 242.827695) scale(0.1 -0.1)">
       <use xlink:href="#DejaVuSans-345"/>
      </g>
      <!-- (alpha) -->
      <g transform="translate(258.474302 254.83043) scale(0.1 -0.1)">
       <use xlink:href="#DejaVuSans-b"/>
       <use xlink:href="#DejaVuSans-44" transform="translate(39.015625 0)"/>
       <use xlink:href="#DejaVuSans-4f" transform="translate(100.296875 0)"/>
       <use xlink:href="#DejaVuSans-53" transform="translate(128.078125 0)"/>
       <use xlink:href="#DejaVuSans-4b" transform="translate(191.5625 0)"/>
       <use xlink:href="#DejaVuSans-44" transform="translate(254.9375 0)"/>
       <use xlink:href="#DejaVuSans-c" transform="translate(316.21875 0)"/>
      </g>
     </g>
    </g>
    <g id="xtick_5">
     <g id="line2d_13">
      <g>
       <use xlink:href="#m6c643b3e52" x="339.48151" y="227.229062" style="stroke: #000000; stroke-width: 0.8"/>
      </g>
     </g>
     <g id="text_11">
      <!-- β -->
      <g transform="translate(336.290885 242.890977) scale(0.1 -0.1)">
       <use xlink:href="#DejaVuSans-346"/>
      </g>
      <!-- (beta) -->
      <g transform="translate(324.304948 254.893711) scale(0.1 -0.1)">
       <use xlink:href="#DejaVuSans-b"/>
       <use xlink:href="#DejaVuSans-45" transform="translate(39.015625 0)"/>
       <use xlink:href="#DejaVuSans-48" transform="translate(102.5 0)"/>
       <use xlink:href="#DejaVuSans-57" transform="translate(164.03125 0)"/>
       <use xlink:href="#DejaVuSans-44" transform="translate(203.234375 0)"/>
       <use xlink:href="#DejaVuSans-c" transform="translate(264.515625 0)"/>
      </g>
     </g>
    </g>
    <g id="xtick_6">
     <g id="line2d_14">
      <g>
       <use xlink:href="#m6c643b3e52" x="402.727" y="227.229062" style="stroke: #000000; stroke-width: 0.8"/>
      </g>
     </g>
     <g id="text_12">
      <!-- γ -->
      <g transform="translate(399.767625 242.827695) scale(0.1 -0.1)">
       <use xlink:href="#DejaVuSans-347"/>
      </g>
      <!-- (gamma) -->
      <g transform="translate(379.782469 254.829648) scale(0.1 -0.1)">
       <use xlink:href="#DejaVuSans-b"/>
       <use xlink:href="#DejaVuSans-4a" transform="translate(39.015625 0)"/>
       <use xlink:href="#DejaVuSans-44" transform="translate(102.5 0)"/>
       <use xlink:href="#DejaVuSans-50" transform="translate(163.78125 0)"/>
       <use xlink:href="#DejaVuSans-50" transform="translate(261.1875 0)"/>
       <use xlink:href="#DejaVuSans-44" transform="translate(358.59375 0)"/>
       <use xlink:href="#DejaVuSans-c" transform="translate(419.875 0)"/>
      </g>
     </g>
    </g>
    <g id="text_13">
     <!-- generated sequence difficulty -->
     <g transform="translate(264.757292 269.895469) scale(0.1 -0.1)">
      <use xlink:href="#DejaVuSans-4a"/>
      <use xlink:href="#DejaVuSans-48" transform="translate(63.484375 0)"/>
      <use xlink:href="#DejaVuSans-51" transform="translate(125.015625 0)"/>
      <use xlink:href="#DejaVuSans-48" transform="translate(188.390625 0)"/>
      <use xlink:href="#DejaVuSans-55" transform="translate(249.921875 0)"/>
      <use xlink:href="#DejaVuSans-44" transform="translate(291.03125 0)"/>
      <use xlink:href="#DejaVuSans-57" transform="translate(352.3125 0)"/>
      <use xlink:href="#DejaVuSans-48" transform="translate(391.515625 0)"/>
      <use xlink:href="#DejaVuSans-47" transform="translate(453.046875 0)"/>
      <use xlink:href="#DejaVuSans-3" transform="translate(516.53125 0)"/>
      <use xlink:href="#DejaVuSans-56" transform="translate(548.3125 0)"/>
      <use xlink:href="#DejaVuSans-48" transform="translate(600.40625 0)"/>
      <use xlink:href="#DejaVuSans-54" transform="translate(661.9375 0)"/>
      <use xlink:href="#DejaVuSans-58" transform="translate(725.421875 0)"/>
      <use xlink:href="#DejaVuSans-48" transform="translate(788.796875 0)"/>
      <use xlink:href="#DejaVuSans-51" transform="translate(850.328125 0)"/>
      <use xlink:href="#DejaVuSans-46" transform="translate(913.703125 0)"/>
      <use xlink:href="#DejaVuSans-48" transform="translate(968.6875 0)"/>
      <use xlink:href="#DejaVuSans-3" transform="translate(1030.21875 0)"/>
      <use xlink:href="#DejaVuSans-47" transform="translate(1062 0)"/>
      <use xlink:href="#DejaVuSans-4c" transform="translate(1125.484375 0)"/>
      <use xlink:href="#DejaVuSans-13b1" transform="translate(1153.265625 0)"/>
      <use xlink:href="#DejaVuSans-46" transform="translate(1249.953125 0)"/>
      <use xlink:href="#DejaVuSans-58" transform="translate(1304.9375 0)"/>
      <use xlink:href="#DejaVuSans-4f" transform="translate(1368.3125 0)"/>
      <use xlink:href="#DejaVuSans-57" transform="translate(1396.09375 0)"/>
      <use xlink:href="#DejaVuSans-5c" transform="translate(1435.296875 0)"/>
     </g>
    </g>
   </g>
   <g id="matplotlib.axis_4">
    <g id="ytick_4">
     <g id="line2d_15">
      <path d="M 265.041569 227.229062 
L 413.921452 227.229062 
" clip-path="url(#p9115d87dda)" style="fill: none; stroke: #dddddd; stroke-opacity: 0.7; stroke-width: 0.6; stroke-linecap: square"/>
     </g>
     <g id="line2d_16">
      <g>
       <use xlink:href="#m7d5a50dcbd" x="265.041569" y="227.229062" style="stroke: #000000; stroke-width: 0.8"/>
      </g>
     </g>
     <g id="text_14">
      <!-- 0.0 -->
      <g transform="translate(242.138444 231.027891) scale(0.1 -0.1)">
       <defs>
        <path id="DejaVuSans-11" d="M 684 794 
L 1344 794 
L 1344 0 
L 684 0 
L 684 794 
z
" transform="scale(0.015625)"/>
       </defs>
       <use xlink:href="#DejaVuSans-13"/>
       <use xlink:href="#DejaVuSans-11" transform="translate(63.625 0)"/>
       <use xlink:href="#DejaVuSans-13" transform="translate(95.40625 0)"/>
      </g>
     </g>
    </g>
    <g id="ytick_5">
     <g id="line2d_17">
      <path d="M 265.041569 200.299445 
L 413.921452 200.299445 
" clip-path="url(#p9115d87dda)" style="fill: none; stroke: #dddddd; stroke-opacity: 0.7; stroke-width: 0.6; stroke-linecap: square"/>
     </g>
     <g id="line2d_18">
      <g>
       <use xlink:href="#m7d5a50dcbd" x="265.041569" y="200.299445" style="stroke: #000000; stroke-width: 0.8"/>
      </g>
     </g>
     <g id="text_15">
      <!-- 0.5 -->
      <g transform="translate(242.138444 204.098273) scale(0.1 -0.1)">
       <defs>
        <path id="DejaVuSans-18" d="M 691 4666 
L 3169 4666 
L 3169 4134 
L 1269 4134 
L 1269 2991 
Q 1406 3038 1543 3061 
Q 1681 3084 1819 3084 
Q 2600 3084 3056 2656 
Q 3513 2228 3513 1497 
Q 3513 744 3044 326 
Q 2575 -91 1722 -91 
Q 1428 -91 1123 -41 
Q 819 9 494 109 
L 494 744 
Q 775 591 1075 516 
Q 1375 441 1709 441 
Q 2250 441 2565 725 
Q 2881 1009 2881 1497 
Q 2881 1984 2565 2268 
Q 2250 2553 1709 2553 
Q 1456 2553 1204 2497 
Q 953 2441 691 2322 
L 691 4666 
z
" transform="scale(0.015625)"/>
       </defs>
       <use xlink:href="#DejaVuSans-13"/>
       <use xlink:href="#DejaVuSans-11" transform="translate(63.625 0)"/>
       <use xlink:href="#DejaVuSans-18" transform="translate(95.40625 0)"/>
      </g>
     </g>
    </g>
    <g id="ytick_6">
     <g id="line2d_19">
      <path d="M 265.041569 173.369827 
L 413.921452 173.369827 
" clip-path="url(#p9115d87dda)" style="fill: none; stroke: #dddddd; stroke-opacity: 0.7; stroke-width: 0.6; stroke-linecap: square"/>
     </g>
     <g id="line2d_20">
      <g>
       <use xlink:href="#m7d5a50dcbd" x="265.041569" y="173.369827" style="stroke: #000000; stroke-width: 0.8"/>
      </g>
     </g>
     <g id="text_16">
      <!-- 1.0 -->
      <g transform="translate(242.138444 177.168655) scale(0.1 -0.1)">
       <defs>
        <path id="DejaVuSans-14" d="M 794 531 
L 1825 531 
L 1825 4091 
L 703 3866 
L 703 4441 
L 1819 4666 
L 2450 4666 
L 2450 531 
L 3481 531 
L 3481 0 
L 794 0 
L 794 531 
z
" transform="scale(0.015625)"/>
       </defs>
       <use xlink:href="#DejaVuSans-14"/>
       <use xlink:href="#DejaVuSans-11" transform="translate(63.625 0)"/>
       <use xlink:href="#DejaVuSans-13" transform="translate(95.40625 0)"/>
      </g>
     </g>
    </g>
    <g id="ytick_7">
     <g id="line2d_21">
      <path d="M 265.041569 146.440209 
L 413.921452 146.440209 
" clip-path="url(#p9115d87dda)" style="fill: none; stroke: #dddddd; stroke-opacity: 0.7; stroke-width: 0.6; stroke-linecap: square"/>
     </g>
     <g id="line2d_22">
      <g>
       <use xlink:href="#m7d5a50dcbd" x="265.041569" y="146.440209" style="stroke: #000000; stroke-width: 0.8"/>
      </g>
     </g>
     <g id="text_17">
      <!-- 1.5 -->
      <g transform="translate(242.138444 150.239037) scale(0.1 -0.1)">
       <use xlink:href="#DejaVuSans-14"/>
       <use xlink:href="#DejaVuSans-11" transform="translate(63.625 0)"/>
       <use xlink:href="#DejaVuSans-18" transform="translate(95.40625 0)"/>
      </g>
     </g>
    </g>
    <g id="ytick_8">
     <g id="line2d_23">
      <path d="M 265.041569 119.510591 
L 413.921452 119.510591 
" clip-path="url(#p9115d87dda)" style="fill: none; stroke: #dddddd; stroke-opacity: 0.7; stroke-width: 0.6; stroke-linecap: square"/>
     </g>
     <g id="line2d_24">
      <g>
       <use xlink:href="#m7d5a50dcbd" x="265.041569" y="119.510591" style="stroke: #000000; stroke-width: 0.8"/>
      </g>
     </g>
     <g id="text_18">
      <!-- 2.0 -->
      <g transform="translate(242.138444 123.30942) scale(0.1 -0.1)">
       <use xlink:href="#DejaVuSans-15"/>
       <use xlink:href="#DejaVuSans-11" transform="translate(63.625 0)"/>
       <use xlink:href="#DejaVuSans-13" transform="translate(95.40625 0)"/>
      </g>
     </g>
    </g>
    <g id="text_19">
     <!-- same-hand finger transition -->
     <g transform="translate(222.732389 237.575719) rotate(-90) scale(0.1 -0.1)">
      <defs>
       <path id="DejaVuSans-13af" d="M 3431 3500 
L 3431 0 
L 2853 0 
L 2853 3053 
L 1275 3053 
L 1275 0 
L 697 0 
L 697 3053 
L 147 3053 
L 147 3500 
L 697 3500 
L 697 3744 
Q 697 4316 967 4589 
Q 1238 4863 1797 4863 
L 2375 4863 
L 2375 4384 
L 1825 4384 
Q 1516 4384 1395 4259 
Q 1275 4134 1275 3809 
L 1275 3500 
L 3431 3500 
z
M 2853 4856 
L 3431 4856 
L 3431 4128 
L 2853 4128 
L 2853 4856 
z
" transform="scale(0.015625)"/>
      </defs>
      <use xlink:href="#DejaVuSans-56"/>
      <use xlink:href="#DejaVuSans-44" transform="translate(52.09375 0)"/>
      <use xlink:href="#DejaVuSans-50" transform="translate(113.375 0)"/>
      <use xlink:href="#DejaVuSans-48" transform="translate(210.78125 0)"/>
      <use xlink:href="#DejaVuSans-10" transform="translate(272.3125 0)"/>
      <use xlink:href="#DejaVuSans-4b" transform="translate(308.390625 0)"/>
      <use xlink:href="#DejaVuSans-44" transform="translate(371.765625 0)"/>
      <use xlink:href="#DejaVuSans-51" transform="translate(433.046875 0)"/>
      <use xlink:href="#DejaVuSans-47" transform="translate(496.421875 0)"/>
      <use xlink:href="#DejaVuSans-3" transform="translate(559.90625 0)"/>
      <use xlink:href="#DejaVuSans-13af" transform="translate(591.6875 0)"/>
      <use xlink:href="#DejaVuSans-51" transform="translate(654.671875 0)"/>
      <use xlink:href="#DejaVuSans-4a" transform="translate(718.046875 0)"/>
      <use xlink:href="#DejaVuSans-48" transform="translate(781.53125 0)"/>
      <use xlink:href="#DejaVuSans-55" transform="translate(843.0625 0)"/>
      <use xlink:href="#DejaVuSans-3" transform="translate(884.171875 0)"/>
      <use xlink:href="#DejaVuSans-57" transform="translate(915.953125 0)"/>
      <use xlink:href="#DejaVuSans-55" transform="translate(955.15625 0)"/>
      <use xlink:href="#DejaVuSans-44" transform="translate(996.265625 0)"/>
      <use xlink:href="#DejaVuSans-51" transform="translate(1057.546875 0)"/>
      <use xlink:href="#DejaVuSans-56" transform="translate(1120.921875 0)"/>
      <use xlink:href="#DejaVuSans-4c" transform="translate(1173.015625 0)"/>
      <use xlink:href="#DejaVuSans-57" transform="translate(1200.796875 0)"/>
      <use xlink:href="#DejaVuSans-4c" transform="translate(1240 0)"/>
      <use xlink:href="#DejaVuSans-52" transform="translate(1267.78125 0)"/>
      <use xlink:href="#DejaVuSans-51" transform="translate(1328.96875 0)"/>
     </g>
     <!-- (finger steps) -->
     <g transform="translate(234.735123 201.493687) rotate(-90) scale(0.1 -0.1)">
      <use xlink:href="#DejaVuSans-b"/>
      <use xlink:href="#DejaVuSans-13af" transform="translate(39.015625 0)"/>
      <use xlink:href="#DejaVuSans-51" transform="translate(102 0)"/>
      <use xlink:href="#DejaVuSans-4a" transform="translate(165.375 0)"/>
      <use xlink:href="#DejaVuSans-48" transform="translate(228.859375 0)"/>
      <use xlink:href="#DejaVuSans-55" transform="translate(290.390625 0)"/>
      <use xlink:href="#DejaVuSans-3" transform="translate(331.5 0)"/>
      <use xlink:href="#DejaVuSans-56" transform="translate(363.28125 0)"/>
      <use xlink:href="#DejaVuSans-57" transform="translate(415.375 0)"/>
      <use xlink:href="#DejaVuSans-48" transform="translate(454.578125 0)"/>
      <use xlink:href="#DejaVuSans-53" transform="translate(516.109375 0)"/>
      <use xlink:href="#DejaVuSans-56" transform="translate(579.59375 0)"/>
      <use xlink:href="#DejaVuSans-c" transform="translate(631.6875 0)"/>
     </g>
    </g>
   </g>
   <g id="patch_8">
    <path d="M 265.041569 227.229062 
L 265.041569 108.688 
" style="fill: none; stroke: #000000; stroke-width: 0.8; stroke-linejoin: miter; stroke-linecap: square"/>
   </g>
   <g id="patch_9">
    <path d="M 413.921452 227.229062 
L 413.921452 108.688 
" style="fill: none; stroke: #000000; stroke-width: 0.8; stroke-linejoin: miter; stroke-linecap: square"/>
   </g>
   <g id="patch_10">
    <path d="M 265.041569 227.229062 
L 413.921452 227.229062 
" style="fill: none; stroke: #000000; stroke-width: 0.8; stroke-linejoin: miter; stroke-linecap: square"/>
   </g>
   <g id="patch_11">
    <path d="M 265.041569 108.688 
L 413.921452 108.688 
" style="fill: none; stroke: #000000; stroke-width: 0.8; stroke-linejoin: miter; stroke-linecap: square"/>
   </g>
   <g id="line2d_25">
    <path d="M 271.808836 175.128144 
L 335.054326 155.805019 
L 398.299816 114.332813 
" clip-path="url(#p9115d87dda)" style="fill: none; stroke-dasharray: 8.51,3.68; stroke-dashoffset: 0; stroke: #d77a47; stroke-width: 2.3"/>
    <g clip-path="url(#p9115d87dda)">
     <use xlink:href="#mc0f2964a02" x="271.808836" y="175.128144" style="fill: #d77a47; stroke: #d77a47; stroke-linejoin: miter"/>
     <use xlink:href="#mc0f2964a02" x="335.054326" y="155.805019" style="fill: #d77a47; stroke: #d77a47; stroke-linejoin: miter"/>
     <use xlink:href="#mc0f2964a02" x="398.299816" y="114.332813" style="fill: #d77a47; stroke: #d77a47; stroke-linejoin: miter"/>
    </g>
   </g>
   <g id="line2d_26">
    <path d="M 280.663205 205.060256 
L 343.908695 201.654278 
L 407.154184 184.176221 
" clip-path="url(#p9115d87dda)" style="fill: none; stroke: #3a76c4; stroke-width: 2.6; stroke-linecap: square"/>
    <g clip-path="url(#p9115d87dda)">
     <use xlink:href="#m74409108a8" x="280.663205" y="205.060256" style="fill: #3a76c4; stroke: #3a76c4"/>
     <use xlink:href="#m74409108a8" x="343.908695" y="201.654278" style="fill: #3a76c4; stroke: #3a76c4"/>
     <use xlink:href="#m74409108a8" x="407.154184" y="184.176221" style="fill: #3a76c4; stroke: #3a76c4"/>
    </g>
   </g>
   <g id="text_20">
    <!-- same-hand finger transition (finger steps) -->
    <g transform="translate(239.977174 102.688) scale(0.095 -0.095)">
     <use xlink:href="#DejaVuSans-56"/>
     <use xlink:href="#DejaVuSans-44" transform="translate(52.09375 0)"/>
     <use xlink:href="#DejaVuSans-50" transform="translate(113.375 0)"/>
     <use xlink:href="#DejaVuSans-48" transform="translate(210.78125 0)"/>
     <use xlink:href="#DejaVuSans-10" transform="translate(272.3125 0)"/>
     <use xlink:href="#DejaVuSans-4b" transform="translate(308.390625 0)"/>
     <use xlink:href="#DejaVuSans-44" transform="translate(371.765625 0)"/>
     <use xlink:href="#DejaVuSans-51" transform="translate(433.046875 0)"/>
     <use xlink:href="#DejaVuSans-47" transform="translate(496.421875 0)"/>
     <use xlink:href="#DejaVuSans-3" transform="translate(559.90625 0)"/>
     <use xlink:href="#DejaVuSans-13af" transform="translate(591.6875 0)"/>
     <use xlink:href="#DejaVuSans-51" transform="translate(654.671875 0)"/>
     <use xlink:href="#DejaVuSans-4a" transform="translate(718.046875 0)"/>
     <use xlink:href="#DejaVuSans-48" transform="translate(781.53125 0)"/>
     <use xlink:href="#DejaVuSans-55" transform="translate(843.0625 0)"/>
     <use xlink:href="#DejaVuSans-3" transform="translate(884.171875 0)"/>
     <use xlink:href="#DejaVuSans-57" transform="translate(915.953125 0)"/>
     <use xlink:href="#DejaVuSans-55" transform="translate(955.15625 0)"/>
     <use xlink:href="#DejaVuSans-44" transform="translate(996.265625 0)"/>
     <use xlink:href="#DejaVuSans-51" transform="translate(1057.546875 0)"/>
     <use xlink:href="#DejaVuSans-56" transform="translate(1120.921875 0)"/>
     <use xlink:href="#DejaVuSans-4c" transform="translate(1173.015625 0)"/>
     <use xlink:href="#DejaVuSans-57" transform="translate(1200.796875 0)"/>
     <use xlink:href="#DejaVuSans-4c" transform="translate(1240 0)"/>
     <use xlink:href="#DejaVuSans-52" transform="translate(1267.78125 0)"/>
     <use xlink:href="#DejaVuSans-51" transform="translate(1328.96875 0)"/>
     <use xlink:href="#DejaVuSans-3" transform="translate(1392.34375 0)"/>
     <use xlink:href="#DejaVuSans-b" transform="translate(1424.125 0)"/>
     <use xlink:href="#DejaVuSans-13af" transform="translate(1463.140625 0)"/>
     <use xlink:href="#DejaVuSans-51" transform="translate(1526.125 0)"/>
     <use xlink:href="#DejaVuSans-4a" transform="translate(1589.5 0)"/>
     <use xlink:href="#DejaVuSans-48" transform="translate(1652.984375 0)"/>
     <use xlink:href="#DejaVuSans-55" transform="translate(1714.515625 0)"/>
     <use xlink:href="#DejaVuSans-3" transform="translate(1755.625 0)"/>
     <use xlink:href="#DejaVuSans-56" transform="translate(1787.40625 0)"/>
     <use xlink:href="#DejaVuSans-57" transform="translate(1839.5 0)"/>
     <use xlink:href="#DejaVuSans-48" transform="translate(1878.703125 0)"/>
     <use xlink:href="#DejaVuSans-53" transform="translate(1940.234375 0)"/>
     <use xlink:href="#DejaVuSans-56" transform="translate(2003.71875 0)"/>
     <use xlink:href="#DejaVuSans-c" transform="translate(2055.8125 0)"/>
    </g>
   </g>
  </g>
  <g id="axes_3">
   <g id="patch_12">
    <path d="M 481.515169 227.229062 
L 630.395052 227.229062 
L 630.395052 108.688 
L 481.515169 108.688 
z
" style="fill: #ffffff"/>
   </g>
   <g id="matplotlib.axis_5">
    <g id="xtick_7">
     <g id="line2d_27">
      <g>
       <use xlink:href="#m6c643b3e52" x="492.70962" y="227.229062" style="stroke: #000000; stroke-width: 0.8"/>
      </g>
     </g>
     <g id="text_21">
      <!-- α -->
      <g transform="translate(489.413527 242.827695) scale(0.1 -0.1)">
       <use xlink:href="#DejaVuSans-345"/>
      </g>
      <!-- (alpha) -->
      <g transform="translate(474.947902 254.83043) scale(0.1 -0.1)">
       <use xlink:href="#DejaVuSans-b"/>
       <use xlink:href="#DejaVuSans-44" transform="translate(39.015625 0)"/>
       <use xlink:href="#DejaVuSans-4f" transform="translate(100.296875 0)"/>
       <use xlink:href="#DejaVuSans-53" transform="translate(128.078125 0)"/>
       <use xlink:href="#DejaVuSans-4b" transform="translate(191.5625 0)"/>
       <use xlink:href="#DejaVuSans-44" transform="translate(254.9375 0)"/>
       <use xlink:href="#DejaVuSans-c" transform="translate(316.21875 0)"/>
      </g>
     </g>
    </g>
    <g id="xtick_8">
     <g id="line2d_28">
      <g>
       <use xlink:href="#m6c643b3e52" x="555.95511" y="227.229062" style="stroke: #000000; stroke-width: 0.8"/>
      </g>
     </g>
     <g id="text_22">
      <!-- β -->
      <g transform="translate(552.764485 242.890977) scale(0.1 -0.1)">
       <use xlink:href="#DejaVuSans-346"/>
      </g>
      <!-- (beta) -->
      <g transform="translate(540.778548 254.893711) scale(0.1 -0.1)">
       <use xlink:href="#DejaVuSans-b"/>
       <use xlink:href="#DejaVuSans-45" transform="translate(39.015625 0)"/>
       <use xlink:href="#DejaVuSans-48" transform="translate(102.5 0)"/>
       <use xlink:href="#DejaVuSans-57" transform="translate(164.03125 0)"/>
       <use xlink:href="#DejaVuSans-44" transform="translate(203.234375 0)"/>
       <use xlink:href="#DejaVuSans-c" transform="translate(264.515625 0)"/>
      </g>
     </g>
    </g>
    <g id="xtick_9">
     <g id="line2d_29">
      <g>
       <use xlink:href="#m6c643b3e52" x="619.2006" y="227.229062" style="stroke: #000000; stroke-width: 0.8"/>
      </g>
     </g>
     <g id="text_23">
      <!-- γ -->
      <g transform="translate(616.241225 242.827695) scale(0.1 -0.1)">
       <use xlink:href="#DejaVuSans-347"/>
      </g>
      <!-- (gamma) -->
      <g transform="translate(596.256069 254.829648) scale(0.1 -0.1)">
       <use xlink:href="#DejaVuSans-b"/>
       <use xlink:href="#DejaVuSans-4a" transform="translate(39.015625 0)"/>
       <use xlink:href="#DejaVuSans-44" transform="translate(102.5 0)"/>
       <use xlink:href="#DejaVuSans-50" transform="translate(163.78125 0)"/>
       <use xlink:href="#DejaVuSans-50" transform="translate(261.1875 0)"/>
       <use xlink:href="#DejaVuSans-44" transform="translate(358.59375 0)"/>
       <use xlink:href="#DejaVuSans-c" transform="translate(419.875 0)"/>
      </g>
     </g>
    </g>
    <g id="text_24">
     <!-- generated sequence difficulty -->
     <g transform="translate(481.230892 269.895469) scale(0.1 -0.1)">
      <use xlink:href="#DejaVuSans-4a"/>
      <use xlink:href="#DejaVuSans-48" transform="translate(63.484375 0)"/>
      <use xlink:href="#DejaVuSans-51" transform="translate(125.015625 0)"/>
      <use xlink:href="#DejaVuSans-48" transform="translate(188.390625 0)"/>
      <use xlink:href="#DejaVuSans-55" transform="translate(249.921875 0)"/>
      <use xlink:href="#DejaVuSans-44" transform="translate(291.03125 0)"/>
      <use xlink:href="#DejaVuSans-57" transform="translate(352.3125 0)"/>
      <use xlink:href="#DejaVuSans-48" transform="translate(391.515625 0)"/>
      <use xlink:href="#DejaVuSans-47" transform="translate(453.046875 0)"/>
      <use xlink:href="#DejaVuSans-3" transform="translate(516.53125 0)"/>
      <use xlink:href="#DejaVuSans-56" transform="translate(548.3125 0)"/>
      <use xlink:href="#DejaVuSans-48" transform="translate(600.40625 0)"/>
      <use xlink:href="#DejaVuSans-54" transform="translate(661.9375 0)"/>
      <use xlink:href="#DejaVuSans-58" transform="translate(725.421875 0)"/>
      <use xlink:href="#DejaVuSans-48" transform="translate(788.796875 0)"/>
      <use xlink:href="#DejaVuSans-51" transform="translate(850.328125 0)"/>
      <use xlink:href="#DejaVuSans-46" transform="translate(913.703125 0)"/>
      <use xlink:href="#DejaVuSans-48" transform="translate(968.6875 0)"/>
      <use xlink:href="#DejaVuSans-3" transform="translate(1030.21875 0)"/>
      <use xlink:href="#DejaVuSans-47" transform="translate(1062 0)"/>
      <use xlink:href="#DejaVuSans-4c" transform="translate(1125.484375 0)"/>
      <use xlink:href="#DejaVuSans-13b1" transform="translate(1153.265625 0)"/>
      <use xlink:href="#DejaVuSans-46" transform="translate(1249.953125 0)"/>
      <use xlink:href="#DejaVuSans-58" transform="translate(1304.9375 0)"/>
      <use xlink:href="#DejaVuSans-4f" transform="translate(1368.3125 0)"/>
      <use xlink:href="#DejaVuSans-57" transform="translate(1396.09375 0)"/>
      <use xlink:href="#DejaVuSans-5c" transform="translate(1435.296875 0)"/>
     </g>
    </g>
   </g>
   <g id="matplotlib.axis_6">
    <g id="ytick_9">
     <g id="line2d_30">
      <path d="M 481.515169 227.229062 
L 630.395052 227.229062 
" clip-path="url(#p9eeaf117fd)" style="fill: none; stroke: #dddddd; stroke-opacity: 0.7; stroke-width: 0.6; stroke-linecap: square"/>
     </g>
     <g id="line2d_31">
      <g>
       <use xlink:href="#m7d5a50dcbd" x="481.515169" y="227.229062" style="stroke: #000000; stroke-width: 0.8"/>
      </g>
     </g>
     <g id="text_25">
      <!-- 0 -->
      <g transform="translate(468.152669 231.027891) scale(0.1 -0.1)">
       <use xlink:href="#DejaVuSans-13"/>
      </g>
     </g>
    </g>
    <g id="ytick_10">
     <g id="line2d_32">
      <path d="M 481.515169 186.368467 
L 630.395052 186.368467 
" clip-path="url(#p9eeaf117fd)" style="fill: none; stroke: #dddddd; stroke-opacity: 0.7; stroke-width: 0.6; stroke-linecap: square"/>
     </g>
     <g id="line2d_33">
      <g>
       <use xlink:href="#m7d5a50dcbd" x="481.515169" y="186.368467" style="stroke: #000000; stroke-width: 0.8"/>
      </g>
     </g>
     <g id="text_26">
      <!-- 20 -->
      <g transform="translate(461.790169 190.167295) scale(0.1 -0.1)">
       <use xlink:href="#DejaVuSans-15"/>
       <use xlink:href="#DejaVuSans-13" transform="translate(63.625 0)"/>
      </g>
     </g>
    </g>
    <g id="ytick_11">
     <g id="line2d_34">
      <path d="M 481.515169 145.507871 
L 630.395052 145.507871 
" clip-path="url(#p9eeaf117fd)" style="fill: none; stroke: #dddddd; stroke-opacity: 0.7; stroke-width: 0.6; stroke-linecap: square"/>
     </g>
     <g id="line2d_35">
      <g>
       <use xlink:href="#m7d5a50dcbd" x="481.515169" y="145.507871" style="stroke: #000000; stroke-width: 0.8"/>
      </g>
     </g>
     <g id="text_27">
      <!-- 40 -->
      <g transform="translate(461.790169 149.3067) scale(0.1 -0.1)">
       <use xlink:href="#DejaVuSans-17"/>
       <use xlink:href="#DejaVuSans-13" transform="translate(63.625 0)"/>
      </g>
     </g>
    </g>
    <g id="text_28">
     <!-- adjacent hand switches -->
     <g transform="translate(442.384895 227.000719) rotate(-90) scale(0.1 -0.1)">
      <defs>
       <path id="DejaVuSans-4d" d="M 603 3500 
L 1178 3500 
L 1178 -63 
Q 1178 -731 923 -1031 
Q 669 -1331 103 -1331 
L -116 -1331 
L -116 -844 
L 38 -844 
Q 366 -844 484 -692 
Q 603 -541 603 -63 
L 603 3500 
z
M 603 4863 
L 1178 4863 
L 1178 4134 
L 603 4134 
L 603 4863 
z
" transform="scale(0.015625)"/>
       <path id="DejaVuSans-5a" d="M 269 3500 
L 844 3500 
L 1563 769 
L 2278 3500 
L 2956 3500 
L 3675 769 
L 4391 3500 
L 4966 3500 
L 4050 0 
L 3372 0 
L 2619 2869 
L 1863 0 
L 1184 0 
L 269 3500 
z
" transform="scale(0.015625)"/>
      </defs>
      <use xlink:href="#DejaVuSans-44"/>
      <use xlink:href="#DejaVuSans-47" transform="translate(61.28125 0)"/>
      <use xlink:href="#DejaVuSans-4d" transform="translate(124.765625 0)"/>
      <use xlink:href="#DejaVuSans-44" transform="translate(152.546875 0)"/>
      <use xlink:href="#DejaVuSans-46" transform="translate(213.828125 0)"/>
      <use xlink:href="#DejaVuSans-48" transform="translate(268.8125 0)"/>
      <use xlink:href="#DejaVuSans-51" transform="translate(330.34375 0)"/>
      <use xlink:href="#DejaVuSans-57" transform="translate(393.71875 0)"/>
      <use xlink:href="#DejaVuSans-3" transform="translate(432.921875 0)"/>
      <use xlink:href="#DejaVuSans-4b" transform="translate(464.703125 0)"/>
      <use xlink:href="#DejaVuSans-44" transform="translate(528.078125 0)"/>
      <use xlink:href="#DejaVuSans-51" transform="translate(589.359375 0)"/>
      <use xlink:href="#DejaVuSans-47" transform="translate(652.734375 0)"/>
      <use xlink:href="#DejaVuSans-3" transform="translate(716.21875 0)"/>
      <use xlink:href="#DejaVuSans-56" transform="translate(748 0)"/>
      <use xlink:href="#DejaVuSans-5a" transform="translate(800.09375 0)"/>
      <use xlink:href="#DejaVuSans-4c" transform="translate(881.875 0)"/>
      <use xlink:href="#DejaVuSans-57" transform="translate(909.65625 0)"/>
      <use xlink:href="#DejaVuSans-46" transform="translate(948.859375 0)"/>
      <use xlink:href="#DejaVuSans-4b" transform="translate(1003.84375 0)"/>
      <use xlink:href="#DejaVuSans-48" transform="translate(1067.21875 0)"/>
      <use xlink:href="#DejaVuSans-56" transform="translate(1128.75 0)"/>
     </g>
     <!-- (%) -->
     <g transform="translate(454.386848 176.610875) rotate(-90) scale(0.1 -0.1)">
      <defs>
       <path id="DejaVuSans-8" d="M 4653 2053 
Q 4381 2053 4226 1822 
Q 4072 1591 4072 1178 
Q 4072 772 4226 539 
Q 4381 306 4653 306 
Q 4919 306 5073 539 
Q 5228 772 5228 1178 
Q 5228 1588 5073 1820 
Q 4919 2053 4653 2053 
z
M 4653 2450 
Q 5147 2450 5437 2106 
Q 5728 1763 5728 1178 
Q 5728 594 5436 251 
Q 5144 -91 4653 -91 
Q 4153 -91 3862 251 
Q 3572 594 3572 1178 
Q 3572 1766 3864 2108 
Q 4156 2450 4653 2450 
z
M 1428 4353 
Q 1159 4353 1004 4120 
Q 850 3888 850 3481 
Q 850 3069 1003 2837 
Q 1156 2606 1428 2606 
Q 1700 2606 1854 2837 
Q 2009 3069 2009 3481 
Q 2009 3884 1853 4118 
Q 1697 4353 1428 4353 
z
M 4250 4750 
L 4750 4750 
L 1831 -91 
L 1331 -91 
L 4250 4750 
z
M 1428 4750 
Q 1922 4750 2215 4408 
Q 2509 4066 2509 3481 
Q 2509 2891 2217 2550 
Q 1925 2209 1428 2209 
Q 931 2209 642 2551 
Q 353 2894 353 3481 
Q 353 4063 643 4406 
Q 934 4750 1428 4750 
z
" transform="scale(0.015625)"/>
      </defs>
      <use xlink:href="#DejaVuSans-b"/>
      <use xlink:href="#DejaVuSans-8" transform="translate(39.015625 0)"/>
      <use xlink:href="#DejaVuSans-c" transform="translate(134.03125 0)"/>
     </g>
    </g>
   </g>
   <g id="patch_13">
    <path d="M 481.515169 227.229062 
L 481.515169 108.688 
" style="fill: none; stroke: #000000; stroke-width: 0.8; stroke-linejoin: miter; stroke-linecap: square"/>
   </g>
   <g id="patch_14">
    <path d="M 630.395052 227.229062 
L 630.395052 108.688 
" style="fill: none; stroke: #000000; stroke-width: 0.8; stroke-linejoin: miter; stroke-linecap: square"/>
   </g>
   <g id="patch_15">
    <path d="M 481.515169 227.229062 
L 630.395052 227.229062 
" style="fill: none; stroke: #000000; stroke-width: 0.8; stroke-linejoin: miter; stroke-linecap: square"/>
   </g>
   <g id="patch_16">
    <path d="M 481.515169 108.688 
L 630.395052 108.688 
" style="fill: none; stroke: #000000; stroke-width: 0.8; stroke-linejoin: miter; stroke-linecap: square"/>
   </g>
   <g id="line2d_36">
    <path d="M 488.282436 160.08044 
L 551.527926 133.988572 
L 614.773416 114.332812 
" clip-path="url(#p9eeaf117fd)" style="fill: none; stroke-dasharray: 8.51,3.68; stroke-dashoffset: 0; stroke: #d77a47; stroke-width: 2.3"/>
    <g clip-path="url(#p9eeaf117fd)">
     <use xlink:href="#mc0f2964a02" x="488.282436" y="160.08044" style="fill: #d77a47; stroke: #d77a47; stroke-linejoin: miter"/>
     <use xlink:href="#mc0f2964a02" x="551.527926" y="133.988572" style="fill: #d77a47; stroke: #d77a47; stroke-linejoin: miter"/>
     <use xlink:href="#mc0f2964a02" x="614.773416" y="114.332812" style="fill: #d77a47; stroke: #d77a47; stroke-linejoin: miter"/>
    </g>
   </g>
   <g id="line2d_37">
    <path d="M 497.136805 165.797612 
L 560.382295 158.624861 
L 623.627784 123.593106 
" clip-path="url(#p9eeaf117fd)" style="fill: none; stroke: #3a76c4; stroke-width: 2.6; stroke-linecap: square"/>
    <g clip-path="url(#p9eeaf117fd)">
     <use xlink:href="#m74409108a8" x="497.136805" y="165.797612" style="fill: #3a76c4; stroke: #3a76c4"/>
     <use xlink:href="#m74409108a8" x="560.382295" y="158.624861" style="fill: #3a76c4; stroke: #3a76c4"/>
     <use xlink:href="#m74409108a8" x="623.627784" y="123.593106" style="fill: #3a76c4; stroke: #3a76c4"/>
    </g>
   </g>
   <g id="text_29">
    <!-- adjacent hand switches (%) -->
    <g transform="translate(490.135696 102.688) scale(0.095 -0.095)">
     <use xlink:href="#DejaVuSans-44"/>
     <use xlink:href="#DejaVuSans-47" transform="translate(61.28125 0)"/>
     <use xlink:href="#DejaVuSans-4d" transform="translate(124.765625 0)"/>
     <use xlink:href="#DejaVuSans-44" transform="translate(152.546875 0)"/>
     <use xlink:href="#DejaVuSans-46" transform="translate(213.828125 0)"/>
     <use xlink:href="#DejaVuSans-48" transform="translate(268.8125 0)"/>
     <use xlink:href="#DejaVuSans-51" transform="translate(330.34375 0)"/>
     <use xlink:href="#DejaVuSans-57" transform="translate(393.71875 0)"/>
     <use xlink:href="#DejaVuSans-3" transform="translate(432.921875 0)"/>
     <use xlink:href="#DejaVuSans-4b" transform="translate(464.703125 0)"/>
     <use xlink:href="#DejaVuSans-44" transform="translate(528.078125 0)"/>
     <use xlink:href="#DejaVuSans-51" transform="translate(589.359375 0)"/>
     <use xlink:href="#DejaVuSans-47" transform="translate(652.734375 0)"/>
     <use xlink:href="#DejaVuSans-3" transform="translate(716.21875 0)"/>
     <use xlink:href="#DejaVuSans-56" transform="translate(748 0)"/>
     <use xlink:href="#DejaVuSans-5a" transform="translate(800.09375 0)"/>
     <use xlink:href="#DejaVuSans-4c" transform="translate(881.875 0)"/>
     <use xlink:href="#DejaVuSans-57" transform="translate(909.65625 0)"/>
     <use xlink:href="#DejaVuSans-46" transform="translate(948.859375 0)"/>
     <use xlink:href="#DejaVuSans-4b" transform="translate(1003.84375 0)"/>
     <use xlink:href="#DejaVuSans-48" transform="translate(1067.21875 0)"/>
     <use xlink:href="#DejaVuSans-56" transform="translate(1128.75 0)"/>
     <use xlink:href="#DejaVuSans-3" transform="translate(1180.84375 0)"/>
     <use xlink:href="#DejaVuSans-b" transform="translate(1212.625 0)"/>
     <use xlink:href="#DejaVuSans-8" transform="translate(1251.640625 0)"/>
     <use xlink:href="#DejaVuSans-c" transform="translate(1346.65625 0)"/>
    </g>
   </g>
  </g>
  <g id="text_30">
   <!-- Condition A motor-demand proxies by generated difficulty -->
   <g transform="translate(165.944032 36.830281) scale(0.11 -0.11)">
    <defs>
     <path id="DejaVuSans-26" d="M 4122 4306 
L 4122 3641 
Q 3803 3938 3442 4084 
Q 3081 4231 2675 4231 
Q 1875 4231 1450 3742 
Q 1025 3253 1025 2328 
Q 1025 1406 1450 917 
Q 1875 428 2675 428 
Q 3081 428 3442 575 
Q 3803 722 4122 1019 
L 4122 359 
Q 3791 134 3420 21 
Q 3050 -91 2638 -91 
Q 1578 -91 968 557 
Q 359 1206 359 2328 
Q 359 3453 968 4101 
Q 1578 4750 2638 4750 
Q 3056 4750 3426 4639 
Q 3797 4528 4122 4306 
z
" transform="scale(0.015625)"/>
     <path id="DejaVuSans-24" d="M 2188 4044 
L 1331 1722 
L 3047 1722 
L 2188 4044 
z
M 1831 4666 
L 2547 4666 
L 4325 0 
L 3669 0 
L 3244 1197 
L 1141 1197 
L 716 0 
L 50 0 
L 1831 4666 
z
" transform="scale(0.015625)"/>
     <path id="DejaVuSans-5b" d="M 3513 3500 
L 2247 1797 
L 3578 0 
L 2900 0 
L 1881 1375 
L 863 0 
L 184 0 
L 1544 1831 
L 300 3500 
L 978 3500 
L 1906 2253 
L 2834 3500 
L 3513 3500 
z
" transform="scale(0.015625)"/>
    </defs>
    <use xlink:href="#DejaVuSans-26"/>
    <use xlink:href="#DejaVuSans-52" transform="translate(69.828125 0)"/>
    <use xlink:href="#DejaVuSans-51" transform="translate(131.015625 0)"/>
    <use xlink:href="#DejaVuSans-47" transform="translate(194.390625 0)"/>
    <use xlink:href="#DejaVuSans-4c" transform="translate(257.875 0)"/>
    <use xlink:href="#DejaVuSans-57" transform="translate(285.65625 0)"/>
    <use xlink:href="#DejaVuSans-4c" transform="translate(324.859375 0)"/>
    <use xlink:href="#DejaVuSans-52" transform="translate(352.640625 0)"/>
    <use xlink:href="#DejaVuSans-51" transform="translate(413.828125 0)"/>
    <use xlink:href="#DejaVuSans-3" transform="translate(477.203125 0)"/>
    <use xlink:href="#DejaVuSans-24" transform="translate(508.984375 0)"/>
    <use xlink:href="#DejaVuSans-3" transform="translate(577.390625 0)"/>
    <use xlink:href="#DejaVuSans-50" transform="translate(609.171875 0)"/>
    <use xlink:href="#DejaVuSans-52" transform="translate(706.578125 0)"/>
    <use xlink:href="#DejaVuSans-57" transform="translate(767.765625 0)"/>
    <use xlink:href="#DejaVuSans-52" transform="translate(806.96875 0)"/>
    <use xlink:href="#DejaVuSans-55" transform="translate(868.15625 0)"/>
    <use xlink:href="#DejaVuSans-10" transform="translate(902.875 0)"/>
    <use xlink:href="#DejaVuSans-47" transform="translate(938.953125 0)"/>
    <use xlink:href="#DejaVuSans-48" transform="translate(1002.4375 0)"/>
    <use xlink:href="#DejaVuSans-50" transform="translate(1063.96875 0)"/>
    <use xlink:href="#DejaVuSans-44" transform="translate(1161.375 0)"/>
    <use xlink:href="#DejaVuSans-51" transform="translate(1222.65625 0)"/>
    <use xlink:href="#DejaVuSans-47" transform="translate(1286.03125 0)"/>
    <use xlink:href="#DejaVuSans-3" transform="translate(1349.515625 0)"/>
    <use xlink:href="#DejaVuSans-53" transform="translate(1381.296875 0)"/>
    <use xlink:href="#DejaVuSans-55" transform="translate(1444.78125 0)"/>
    <use xlink:href="#DejaVuSans-52" transform="translate(1483.6875 0)"/>
    <use xlink:href="#DejaVuSans-5b" transform="translate(1541.796875 0)"/>
    <use xlink:href="#DejaVuSans-4c" transform="translate(1600.984375 0)"/>
    <use xlink:href="#DejaVuSans-48" transform="translate(1628.765625 0)"/>
    <use xlink:href="#DejaVuSans-56" transform="translate(1690.296875 0)"/>
    <use xlink:href="#DejaVuSans-3" transform="translate(1742.390625 0)"/>
    <use xlink:href="#DejaVuSans-45" transform="translate(1774.171875 0)"/>
    <use xlink:href="#DejaVuSans-5c" transform="translate(1837.65625 0)"/>
    <use xlink:href="#DejaVuSans-3" transform="translate(1896.84375 0)"/>
    <use xlink:href="#DejaVuSans-4a" transform="translate(1928.625 0)"/>
    <use xlink:href="#DejaVuSans-48" transform="translate(1992.109375 0)"/>
    <use xlink:href="#DejaVuSans-51" transform="translate(2053.640625 0)"/>
    <use xlink:href="#DejaVuSans-48" transform="translate(2117.015625 0)"/>
    <use xlink:href="#DejaVuSans-55" transform="translate(2178.546875 0)"/>
    <use xlink:href="#DejaVuSans-44" transform="translate(2219.65625 0)"/>
    <use xlink:href="#DejaVuSans-57" transform="translate(2280.9375 0)"/>
    <use xlink:href="#DejaVuSans-48" transform="translate(2320.140625 0)"/>
    <use xlink:href="#DejaVuSans-47" transform="translate(2381.671875 0)"/>
    <use xlink:href="#DejaVuSans-3" transform="translate(2445.15625 0)"/>
    <use xlink:href="#DejaVuSans-47" transform="translate(2476.9375 0)"/>
    <use xlink:href="#DejaVuSans-4c" transform="translate(2540.421875 0)"/>
    <use xlink:href="#DejaVuSans-13b1" transform="translate(2568.203125 0)"/>
    <use xlink:href="#DejaVuSans-46" transform="translate(2664.890625 0)"/>
    <use xlink:href="#DejaVuSans-58" transform="translate(2719.875 0)"/>
    <use xlink:href="#DejaVuSans-4f" transform="translate(2783.25 0)"/>
    <use xlink:href="#DejaVuSans-57" transform="translate(2811.03125 0)"/>
    <use xlink:href="#DejaVuSans-5c" transform="translate(2850.234375 0)"/>
   </g>
  </g>
  <g id="legend_1">
   <g id="line2d_38">
    <path d="M 196.320066 10.47875 
L 204.320066 10.47875 
L 212.320066 10.47875 
" style="fill: none; stroke-dasharray: 8.51,3.68; stroke-dashoffset: 0; stroke: #d77a47; stroke-width: 2.3"/>
    <g>
     <use xlink:href="#mc0f2964a02" x="204.320066" y="10.47875" style="fill: #d77a47; stroke: #d77a47; stroke-linejoin: miter"/>
    </g>
   </g>
   <g id="text_31">
    <!-- hidden generated reference -->
    <g transform="translate(218.720066 13.27875) scale(0.08 -0.08)">
     <defs>
      <path id="DejaVuSans-49" d="M 2375 4863 
L 2375 4384 
L 1825 4384 
Q 1516 4384 1395 4259 
Q 1275 4134 1275 3809 
L 1275 3500 
L 2222 3500 
L 2222 3053 
L 1275 3053 
L 1275 0 
L 697 0 
L 697 3053 
L 147 3053 
L 147 3500 
L 697 3500 
L 697 3744 
Q 697 4328 969 4595 
Q 1241 4863 1831 4863 
L 2375 4863 
z
" transform="scale(0.015625)"/>
     </defs>
     <use xlink:href="#DejaVuSans-4b"/>
     <use xlink:href="#DejaVuSans-4c" transform="translate(63.375 0)"/>
     <use xlink:href="#DejaVuSans-47" transform="translate(91.15625 0)"/>
     <use xlink:href="#DejaVuSans-47" transform="translate(154.640625 0)"/>
     <use xlink:href="#DejaVuSans-48" transform="translate(218.125 0)"/>
     <use xlink:href="#DejaVuSans-51" transform="translate(279.65625 0)"/>
     <use xlink:href="#DejaVuSans-3" transform="translate(343.03125 0)"/>
     <use xlink:href="#DejaVuSans-4a" transform="translate(374.8125 0)"/>
     <use xlink:href="#DejaVuSans-48" transform="translate(438.296875 0)"/>
     <use xlink:href="#DejaVuSans-51" transform="translate(499.828125 0)"/>
     <use xlink:href="#DejaVuSans-48" transform="translate(563.203125 0)"/>
     <use xlink:href="#DejaVuSans-55" transform="translate(624.734375 0)"/>
     <use xlink:href="#DejaVuSans-44" transform="translate(665.84375 0)"/>
     <use xlink:href="#DejaVuSans-57" transform="translate(727.125 0)"/>
     <use xlink:href="#DejaVuSans-48" transform="translate(766.328125 0)"/>
     <use xlink:href="#DejaVuSans-47" transform="translate(827.859375 0)"/>
     <use xlink:href="#DejaVuSans-3" transform="translate(891.34375 0)"/>
     <use xlink:href="#DejaVuSans-55" transform="translate(923.125 0)"/>
     <use xlink:href="#DejaVuSans-48" transform="translate(962.03125 0)"/>
     <use xlink:href="#DejaVuSans-49" transform="translate(1023.5625 0)"/>
     <use xlink:href="#DejaVuSans-48" transform="translate(1058.765625 0)"/>
     <use xlink:href="#DejaVuSans-55" transform="translate(1120.296875 0)"/>
     <use xlink:href="#DejaVuSans-48" transform="translate(1159.203125 0)"/>
     <use xlink:href="#DejaVuSans-51" transform="translate(1220.734375 0)"/>
     <use xlink:href="#DejaVuSans-46" transform="translate(1284.109375 0)"/>
     <use xlink:href="#DejaVuSans-48" transform="translate(1339.09375 0)"/>
    </g>
   </g>
   <g id="line2d_39">
    <path d="M 346.770066 10.47875 
L 354.770066 10.47875 
L 362.770066 10.47875 
" style="fill: none; stroke: #3a76c4; stroke-width: 2.6; stroke-linecap: square"/>
    <g>
     <use xlink:href="#m74409108a8" x="354.770066" y="10.47875" style="fill: #3a76c4; stroke: #3a76c4"/>
    </g>
   </g>
   <g id="text_32">
    <!-- observed free choice -->
    <g transform="translate(369.170066 13.27875) scale(0.08 -0.08)">
     <use xlink:href="#DejaVuSans-52"/>
     <use xlink:href="#DejaVuSans-45" transform="translate(61.1875 0)"/>
     <use xlink:href="#DejaVuSans-56" transform="translate(124.671875 0)"/>
     <use xlink:href="#DejaVuSans-48" transform="translate(176.765625 0)"/>
     <use xlink:href="#DejaVuSans-55" transform="translate(238.296875 0)"/>
     <use xlink:href="#DejaVuSans-59" transform="translate(279.40625 0)"/>
     <use xlink:href="#DejaVuSans-48" transform="translate(338.59375 0)"/>
     <use xlink:href="#DejaVuSans-47" transform="translate(400.125 0)"/>
     <use xlink:href="#DejaVuSans-3" transform="translate(463.609375 0)"/>
     <use xlink:href="#DejaVuSans-49" transform="translate(495.390625 0)"/>
     <use xlink:href="#DejaVuSans-55" transform="translate(530.59375 0)"/>
     <use xlink:href="#DejaVuSans-48" transform="translate(569.5 0)"/>
     <use xlink:href="#DejaVuSans-48" transform="translate(631.03125 0)"/>
     <use xlink:href="#DejaVuSans-3" transform="translate(692.5625 0)"/>
     <use xlink:href="#DejaVuSans-46" transform="translate(724.34375 0)"/>
     <use xlink:href="#DejaVuSans-4b" transform="translate(779.328125 0)"/>
     <use xlink:href="#DejaVuSans-52" transform="translate(842.703125 0)"/>
     <use xlink:href="#DejaVuSans-4c" transform="translate(903.890625 0)"/>
     <use xlink:href="#DejaVuSans-46" transform="translate(931.671875 0)"/>
     <use xlink:href="#DejaVuSans-48" transform="translate(986.65625 0)"/>
    </g>
   </g>
  </g>
 </g>
 <defs>
  <clipPath id="p5c49cb60a2">
   <rect x="48.567969" y="108.688" width="148.879883" height="118.541063"/>
  </clipPath>
  <clipPath id="p9115d87dda">
   <rect x="265.041569" y="108.688" width="148.879883" height="118.541063"/>
  </clipPath>
  <clipPath id="p9eeaf117fd">
   <rect x="481.515169" y="108.688" width="148.879883" height="118.541063"/>
  </clipPath>
 </defs>
</svg>
